<?xml version="1.0" encoding="utf-8"?>
<!-- Generator: Adobe Illustrator 26.1.0, SVG Export Plug-In . SVG Version: 6.00 Build 0)  -->
<svg version="1.1" id="Layer_1" xmlns="http://www.w3.org/2000/svg" xmlns:xlink="http://www.w3.org/1999/xlink" x="0px" y="0px"
	 viewBox="0 0 26 24" style="enable-background:new 0 0 26 24;" xml:space="preserve">
<style type="text/css">
	.st0{fill-rule:evenodd;clip-rule:evenodd;}
</style>
<g>
	<path class="st0" d="M23.5,19.6c-2.8,2.1-7,3.2-10.5,3.2c-4.8,0-9.4-1.7-12.9-4.9c-0.3-0.2,0-0.6,0.3-0.4c3.9,2.2,8.4,3.4,12.9,3.4
		c3.4,0,6.7-0.7,9.8-2C23.6,18.7,24,19.2,23.5,19.6z"/>
	<path class="st0" d="M24.7,18.2c-0.4-0.5-2.4-0.2-3.3-0.1c-0.3,0-0.3-0.2-0.1-0.4c1.6-1.1,4.3-0.8,4.6-0.4c0.3,0.4-0.1,3.1-1.6,4.3
		c-0.2,0.2-0.5,0.1-0.4-0.2C24.3,20.6,25,18.7,24.7,18.2z"/>
</g>
<g>
	<g>
		<path d="M20.9,0.5H5.1c-0.9,0-1.7,0.8-1.7,1.7v10.1c0,0.9,0.8,1.7,1.7,1.7h15.8c0.9,0,1.7-0.8,1.7-1.7V2.2
			C22.6,1.3,21.8,0.5,20.9,0.5z M20.7,1.6c-0.3,0.3-6.3,6.2-6.5,6.4c-0.3,0.3-0.7,0.5-1.2,0.5s-0.9-0.2-1.2-0.5
			c-0.1-0.1-6-6-6.5-6.4H20.7z M4.5,12.1V2.4l4.9,4.8L4.5,12.1z M5.3,12.9l4.9-4.8L11,8.9c0.5,0.5,1.2,0.8,2,0.8s1.5-0.3,2-0.8
			l0.8-0.8l4.9,4.8H5.3z M21.5,12.1l-4.9-4.8l4.9-4.8V12.1z"/>
	</g>
</g>
</svg>
