<svg id="Layer_1" data-name="Layer 1" xmlns="http://www.w3.org/2000/svg" xmlns:xlink="http://www.w3.org/1999/xlink" viewBox="0 0 998.89 998.62"><defs><clipPath id="clip-path"><circle cx="498.9" cy="498.9" r="488.9" style="fill:none;stroke:#fff;stroke-linecap:round;stroke-miterlimit:10;stroke-width:20px"/></clipPath><symbol id="small_icon" data-name="small icon" viewBox="0 0 1024 1024"><g id="App_Icon" data-name="App Icon"><rect width="1024" height="1024" style="fill:#009adb"/></g></symbol></defs><g style="clip-path:url(#clip-path)"><use width="1024" height="1024" transform="translate(7.06 6.79) scale(0.97)" xlink:href="#small_icon"/></g><circle cx="498.9" cy="498.9" r="488.9" style="fill:none;stroke:#fff;stroke-linecap:round;stroke-miterlimit:10;stroke-width:20px"/><path d="M240.56,441.66a7.42,7.42,0,0,1-2.34,5.45,7.74,7.74,0,0,1-5.7,2.28,8.09,8.09,0,0,1-5.45-2.34c-5.71-5.72-15.11-8-21.24-8q-14,0-21.91,9.59T176,475.87v84.3a7,7,0,0,1-2.45,5.84,8.11,8.11,0,0,1-10.62,0,6.94,6.94,0,0,1-2.45-5.84v-84.3a69.62,69.62,0,0,1,2.85-20.34A48.84,48.84,0,0,1,171.88,439,41,41,0,0,1,186,427.61a44.26,44.26,0,0,1,19.81-4.14,49.65,49.65,0,0,1,17.11,3.36,41.38,41.38,0,0,1,15,9.33,7.72,7.72,0,0,1,2.61,5.51Z" style="fill:#fff"/><path d="M279.41,560.17A7,7,0,0,1,277,566a8.23,8.23,0,0,1-10.64,0,7,7,0,0,1-2.45-5.84V433.88a7,7,0,0,1,2.45-5.84A8.26,8.26,0,0,1,277,428a7,7,0,0,1,2.45,5.84Z" style="fill:#fff"/><path d="M414.21,560.17a7,7,0,0,1-2.48,5.84,8.23,8.23,0,0,1-10.62,0,7,7,0,0,1-2.45-5.84V474.06a34.18,34.18,0,0,0-2.73-13.6,35,35,0,0,0-64.52,0,34.17,34.17,0,0,0-2.72,13.6v86.11a7,7,0,0,1-2.45,5.84,8.23,8.23,0,0,1-10.64,0,7,7,0,0,1-2.45-5.84V474.06a49.19,49.19,0,0,1,4-19.7,50.76,50.76,0,0,1,10.75-16.08,51.57,51.57,0,0,1,15.84-10.76,50.71,50.71,0,0,1,39.61,0A50.35,50.35,0,0,1,414.09,474Z" style="fill:#fff"/><path d="M546.35,569.23a49.2,49.2,0,0,1-4,19.81,50.07,50.07,0,0,1-26.88,26.69,49.19,49.19,0,0,1-19.7,4,59.93,59.93,0,0,1-11.41-1.16A65.59,65.59,0,0,1,472.52,615a51.21,51.21,0,0,1-10.87-5.94,32.36,32.36,0,0,1-8.16-8.3,7.38,7.38,0,0,1-1.29-4.41,7.16,7.16,0,0,1,2.46-5.57,8.09,8.09,0,0,1,5.56-2.22,8.91,8.91,0,0,1,3.23.66,6.25,6.25,0,0,1,3,2.71c3.08,4.64,9.73,8.31,14.12,9.72a49.06,49.06,0,0,0,15.15,2.48,34.22,34.22,0,0,0,13.61-2.73A35.21,35.21,0,0,0,528,582.76a34,34,0,0,0,2.83-13.52V551.41A50.27,50.27,0,0,1,515,561.65a49.62,49.62,0,0,1-19.17,3.76,49,49,0,0,1-19.8-4,50.41,50.41,0,0,1-26.7-26.69,49,49,0,0,1-4-19.81V474.06a49.19,49.19,0,0,1,4-19.7A50.76,50.76,0,0,1,460,438.28a51.62,51.62,0,0,1,15.85-10.76,50.68,50.68,0,0,1,39.6,0,49.74,49.74,0,0,1,26.82,26.82,49.19,49.19,0,0,1,4,19.7v95.2ZM530.8,474.06a34.18,34.18,0,0,0-2.73-13.6,35.09,35.09,0,0,0-64.6,0,34.33,34.33,0,0,0-2.71,13.6v40.7a34.12,34.12,0,0,0,2.71,13.7,35.26,35.26,0,0,0,18.67,18.66A35,35,0,0,0,528,528.44a34,34,0,0,0,2.79-13.7Z" style="fill:#fff"/><circle cx="271.65" cy="391.38" r="13.29" style="fill:#ffa400"/><path d="M759.16,416.28c-62.64,0-98.54,69-66,120.11a.1.1,0,0,1,0,0l-11.22,23a9.16,9.16,0,0,0,12.28,12.26l22.89-11.29c52,33.25,120.23-4.23,120.23-65.91A78.14,78.14,0,0,0,759.16,416.28Zm-46,62.05a4.59,4.59,0,0,1,0-7.27l18.68-14.35a4.59,4.59,0,0,1,5.59,7.27l-14,10.72,14,10.71a4.59,4.59,0,0,1-5.59,7.27ZM732,528.14a4.59,4.59,0,0,1-6.49-6.48l60.74-60.74a4.59,4.59,0,0,1,6.48,6.49Zm73-10.14-18.68,14.35a4.59,4.59,0,0,1-5.59-7.27l14-10.71-14-10.71a4.59,4.59,0,0,1,5.59-7.28l18.68,14.35a4.58,4.58,0,0,1,0,7.27Z" style="fill:#ffa400"/><line x1="614.93" y1="426.39" x2="615.42" y2="567.97" style="fill:none;stroke:#fff;stroke-miterlimit:10;stroke-width:3px;opacity:0.6000000000000001"/></svg>